<?xml version="1.0" encoding="UTF-8"?>
<svg width="6px" height="10px" viewBox="0 0 6 10" version="1.1" xmlns="http://www.w3.org/2000/svg" xmlns:xlink="http://www.w3.org/1999/xlink">
    <!-- Generator: Sketch 41.2 (35397) - http://www.bohemiancoding.com/sketch -->
    <title>dragndrop</title>
    <desc>Created with Sketch.</desc>
    <defs></defs>
    <g id="Page-1" stroke="none" stroke-width="1" fill="none" fill-rule="evenodd">
        <g id="dragndrop" fill="#FBFBFB">
            <path d="M0,0 L0,2 L2,2 L2,0 L0,0 Z M4,0 L4,2 L6,2 L6,0 L4,0 Z M0,4 L0,6 L2,6 L2,4 L0,4 Z M4,4 L4,6 L6,6 L6,4 L4,4 Z M0,8 L0,10 L2,10 L2,8 L0,8 Z M4,8 L4,10 L6,10 L6,8 L4,8 Z" id="Rectangle-path"></path>
        </g>
    </g>
</svg>